<svg width="43" height="48" viewBox="0 0 43 48" fill="none" xmlns="http://www.w3.org/2000/svg">
<path d="M39.25 12.0938C41.3125 12.0938 43 13.7812 42.9062 15.75V29.9062C42.9062 31.3125 42.8125 32.7188 42.4375 34.0312L40 44.5312C39.5312 46.5938 37.6562 48 35.5938 48H17.125C15.625 48 14.2188 47.3438 13.4688 46.2188L1.65625 30C0.4375 28.3125 0.8125 25.9688 2.5 24.75C4.1875 23.5312 6.53125 23.9062 7.75 25.5938L10.75 29.625V7.5C10.75 5.53125 12.3438 3.84375 14.4062 3.84375C16.4688 3.75 18.25 5.53125 18.25 7.59375V24H19V3.75C19 1.78125 20.5938 0.09375 22.6562 0.09375C24.7188 0 26.5 1.78125 26.5 3.84375V24H27.25V7.40625C27.25 5.4375 28.8438 3.75 30.9062 3.75C32.9688 3.65625 34.75 5.4375 34.75 7.5V24H35.5V15.8438C35.5 13.7812 37.1875 12 39.25 12.0938Z" fill="white"/>
</svg>
