<svg width="54" height="43" viewBox="0 0 54 43" fill="none" xmlns="http://www.w3.org/2000/svg">
<path d="M50.8125 0.09375C52.5 0 54 1.3125 53.9062 2.90625V34.5938C53.9062 36.0938 52.6875 37.4062 51.0938 37.5C46.5 37.6875 37.125 38.625 30.6562 41.9062C29.625 42.375 28.4062 41.7188 28.4062 40.5938V6.46875C28.4062 6 28.6875 5.53125 29.1562 5.25C35.4375 1.40625 45.6562 0.375 50.8125 0.09375ZM24.75 5.25C25.2188 5.53125 25.5 6 25.5 6.46875V40.5938C25.5 41.7188 24.2812 42.375 23.25 41.9062C16.7812 38.625 7.40625 37.6875 2.8125 37.5C1.21875 37.4062 0 36.0938 0 34.5938V2.90625C0 1.3125 1.40625 0 3.09375 0.09375C8.25 0.375 18.4688 1.40625 24.75 5.25Z" fill="white"/>
</svg>
