<svg width="55" height="48" viewBox="0 0 55 48" fill="none" xmlns="http://www.w3.org/2000/svg">
<path d="M15.9062 16.5C15.1562 16.5 14.4062 15.8438 14.4062 15V9C14.4062 8.15625 15.1562 7.5 15.9062 7.5H21.9062V1.5C21.9062 0.65625 22.6562 0 23.4062 0H29.4062C30.25 0 30.9062 0.65625 30.9062 1.5V7.5H36.9062C37.75 7.5 38.4062 8.15625 38.4062 9V15C38.4062 15.8438 37.75 16.5 36.9062 16.5H30.9062V22.5C30.9062 23.3438 30.25 24 29.4062 24H23.4062C22.6562 24 21.9062 23.3438 21.9062 22.5V16.5H15.9062ZM54.25 31.5938C54.625 32.1562 54.9062 32.9062 54.9062 33.75C54.9062 34.9688 54.3438 36.0938 53.4062 36.75L40.75 46.125C39.1562 47.3438 37.0938 48 34.9375 48H2.40625C1.65625 48 0.90625 47.3438 0.90625 46.5V37.5C0.90625 36.75 1.65625 36 2.40625 36H7.65625L11.9688 32.5312C13.8438 30.9375 16.2812 30 18.9062 30H33.9062C35.5938 30 36.9062 31.4062 36.9062 33C36.9062 33.1875 36.9062 33.375 36.9062 33.5625C36.625 34.9688 35.3125 36 33.8125 36H26.4062C25.6562 36 24.9062 36.75 24.9062 37.5C24.9062 38.3438 25.6562 39 26.4062 39H37.75L49 30.75C49.5625 30.2812 50.3125 30 51.1562 30C52.4688 30 53.5 30.6562 54.25 31.5938Z" fill="white"/>
</svg>
