<svg width="42" height="48" viewBox="0 0 42 48" fill="none" xmlns="http://www.w3.org/2000/svg">
<path d="M42 33.75C42 34.5 41.625 35.1562 41.1562 35.5312C40.6875 36.9375 40.6875 41.0625 41.1562 42.5625C41.625 42.9375 42 43.5938 42 44.25V45.75C42 47.0625 40.9688 48 39.75 48H9C4.03125 48 0 43.9688 0 39V9C0 4.03125 4.03125 0 9 0H39.75C40.9688 0 42 1.03125 42 2.25V33.75ZM12 12.5625V14.4375C12 14.8125 12.1875 15 12.5625 15H32.4375C32.7188 15 33 14.8125 33 14.4375V12.5625C33 12.2812 32.7188 12 32.4375 12H12.5625C12.1875 12 12 12.2812 12 12.5625ZM12 18.5625V20.4375C12 20.8125 12.1875 21 12.5625 21H32.4375C32.7188 21 33 20.8125 33 20.4375V18.5625C33 18.2812 32.7188 18 32.4375 18H12.5625C12.1875 18 12 18.2812 12 18.5625ZM35.7188 42C35.5312 40.4062 35.5312 37.6875 35.7188 36H9C7.3125 36 6 37.4062 6 39C6 40.6875 7.3125 42 9 42H35.7188Z" fill="white"/>
</svg>
