<svg width="60" height="43" viewBox="0 0 60 43" fill="none" xmlns="http://www.w3.org/2000/svg">
<path d="M9 18.9414C5.625 18.9414 3 16.3164 3 12.9414C3 9.66016 5.625 6.94141 9 6.94141C12.2812 6.94141 15 9.66016 15 12.9414C15 16.3164 12.2812 18.9414 9 18.9414ZM51 18.9414C47.625 18.9414 45 16.3164 45 12.9414C45 9.66016 47.625 6.94141 51 6.94141C54.2812 6.94141 57 9.66016 57 12.9414C57 16.3164 54.2812 18.9414 51 18.9414ZM54 21.9414C57.2812 21.9414 60 24.6602 60 27.9414V30.9414C60 32.6289 58.5938 33.9414 57 33.9414H50.8125C50.1562 29.5352 47.5312 25.7852 43.6875 23.7227C44.8125 22.6914 46.3125 21.9414 48 21.9414H54ZM30 21.9414C24.1875 21.9414 19.5 17.2539 19.5 11.4414C19.5 5.72266 24.1875 0.941406 30 0.941406C35.7188 0.941406 40.5 5.72266 40.5 11.4414C40.5 17.2539 35.7188 21.9414 30 21.9414ZM37.125 24.9414C43.125 24.9414 48 29.8164 48 35.8164V38.4414C48 40.9727 45.9375 42.9414 43.5 42.9414H16.5C13.9688 42.9414 12 40.9727 12 38.4414V35.8164C12 29.8164 16.7812 24.9414 22.7812 24.9414H23.5312C25.5 25.8789 27.6562 26.4414 30 26.4414C32.25 26.4414 34.4062 25.8789 36.375 24.9414H37.125ZM16.2188 23.7227C12.375 25.7852 9.75 29.5352 9.09375 33.9414H3C1.3125 33.9414 0 32.6289 0 30.9414V27.9414C0 24.6602 2.625 21.9414 6 21.9414H12C13.5938 21.9414 15.0938 22.6914 16.2188 23.7227Z" fill="white"/>
</svg>
