<svg width="22" height="24" viewBox="0 0 22 24" fill="none" xmlns="http://www.w3.org/2000/svg">
<path d="M10.58 12C7.25183 12 4.57996 9.32812 4.57996 6C4.57996 2.71875 7.25183 0 10.58 0C13.8612 0 16.58 2.71875 16.58 6C16.58 9.32812 13.8612 12 10.58 12ZM14.7518 13.5C18.2206 13.5 21.08 16.3594 21.08 19.8281V21.75C21.08 23.0156 20.0487 24 18.83 24H2.32996C1.06433 24 0.0799561 23.0156 0.0799561 21.75V19.8281C0.0799561 16.3594 2.89246 13.5 6.36121 13.5H7.15808C8.18933 14.0156 9.36121 14.25 10.58 14.25C11.7987 14.25 12.9237 14.0156 13.955 13.5H14.7518Z" fill="black"/>
</svg>
