<svg width="42" height="42" viewBox="0 0 42 42" fill="none" xmlns="http://www.w3.org/2000/svg">
<path d="M15.1875 15.375C15.6562 15 15.75 14.9062 18.5625 14.9062C21.1875 14.9062 21.1875 14.9062 21.5625 15.0938C22.125 15.375 22.4062 15.75 22.4062 16.4062C22.4062 16.9688 22.125 17.3438 21.6562 17.625C21.375 17.8125 21.2812 17.8125 18.75 17.9062C17.25 17.9062 16.0312 17.8125 15.8438 17.8125C14.8125 17.5312 14.4375 16.125 15.1875 15.375ZM20.9062 24.2812C26.1562 24.2812 26.0625 24.2812 26.625 24.75C27.2812 25.4062 27.1875 26.5312 26.3438 27L25.4062 27.1875H21C16.9688 27.2812 15.8438 27.1875 15.6562 27.0938C15.2812 26.9062 14.9062 26.4375 14.8125 25.9688C14.7188 25.5 15 24.9375 15.2812 24.6562C15.75 24.2812 15.8438 24.2812 20.9062 24.2812ZM41.9062 36.4688C41.5312 39.0938 39.75 41.1562 37.125 41.9062C36.375 42 36.1875 42 20.9062 42C6.09375 42 5.34375 42 4.78125 41.9062C3.9375 41.625 3.28125 41.3438 2.625 40.9688C2.15625 40.5938 1.40625 39.8438 1.03125 39.375C0.75 38.9062 0.28125 37.9688 0.09375 37.3125C0 36.6562 0 36.4688 0 21.0938C0 5.8125 0 5.4375 0.09375 4.78125C0.75 2.4375 2.53125 0.65625 4.96875 0.1875C5.625 0 36.0938 0 36.8438 0.1875C38.8125 0.5625 40.3125 1.78125 41.25 3.5625C42 4.96875 41.9062 3.375 41.9062 20.5312C42 31.3125 41.9062 35.9062 41.9062 36.4688ZM33.8438 19.125C33.75 18.6562 33.4688 18.1875 33.1875 18C33.0938 18 32.4375 17.9062 31.6875 17.9062C30.5625 17.8125 30.375 17.8125 30 17.625C29.4375 17.25 29.25 16.875 29.25 15.8438C29.25 13.9688 28.5 12.1875 26.9062 10.5938C25.7812 9.46875 24.5625 8.625 23.0625 8.25C22.7812 8.15625 22.0312 8.0625 19.4062 8.0625C15.375 7.96875 14.5312 8.0625 13.125 8.625C10.5938 9.65625 8.8125 11.7188 8.15625 14.4375C7.96875 15 7.96875 15.8438 7.96875 20.5312C7.875 26.4375 7.96875 27.2812 8.34375 28.4062C9.28125 31.3125 11.8125 33.4688 14.3438 33.9375C15.2812 34.0312 25.875 34.125 26.9062 33.9375C28.7812 33.6562 30.2812 32.9062 31.6875 31.5C32.7188 30.4688 33.2812 29.3438 33.75 27.9375C34.0312 26.9062 34.0312 19.5938 33.8438 19.125Z" fill="black"/>
</svg>
