<svg width="62" height="37" viewBox="0 0 62 37" fill="none" xmlns="http://www.w3.org/2000/svg">
<path d="M59.3125 9.4375C61.4688 10.0938 61.4688 13 59.3125 13.6562L33.1562 21.7188C31.2812 22.2812 29.5938 22 28.75 21.7188L10.4688 16.0938C9.25 16.8438 8.59375 18.1562 8.5 19.5625C9.34375 20.0312 10 20.9688 10 22C10 23.0312 9.4375 23.875 8.6875 24.4375L11.0312 35.2188C11.2188 36.1562 10.5625 37 9.625 37H4.28125C3.34375 37 2.6875 36.1562 2.875 35.2188L5.21875 24.4375C4.46875 23.875 4 23.0312 4 22C4 20.9688 4.5625 20.0312 5.5 19.4688C5.59375 17.875 6.15625 16.2812 7.1875 15.0625L2.59375 13.6562C0.4375 13 0.4375 10.0938 2.59375 9.4375L28.75 1.375C30.1562 0.90625 31.75 0.90625 33.1562 1.375L59.3125 9.4375ZM34 24.625L47.5938 20.4062L49 31C49 34.375 40.9375 37 31 37C20.9688 37 13 34.375 13 31L14.3125 20.4062L27.9062 24.625C29.0312 25 31.375 25.375 34 24.625Z" fill="black"/>
</svg>
