<svg width="37" height="28" viewBox="0 0 37 28" fill="none" xmlns="http://www.w3.org/2000/svg">
<path d="M33.3251 0.777588C35.1532 0.777588 36.7001 2.32446 36.7001 4.15259V24.4026C36.7001 26.301 35.1532 27.7776 33.3251 27.7776H4.07507C2.17664 27.7776 0.700073 26.301 0.700073 24.4026V4.15259C0.700073 2.32446 2.17664 0.777588 4.07507 0.777588H33.3251ZM33.3251 4.15259H4.07507V7.0354C5.62195 8.37134 8.1532 10.3401 13.4969 14.5588C14.6923 15.4729 17.0126 17.7229 18.7001 17.6526C20.3173 17.7229 22.6376 15.4729 23.8329 14.5588C29.1766 10.3401 31.7079 8.37134 33.3251 7.0354V4.15259ZM4.07507 24.4026H33.3251V11.3948C31.7079 12.6604 29.3876 14.4885 25.9423 17.2307C24.3251 18.426 21.6532 21.0979 18.7001 21.0276C15.6766 21.0979 12.9344 18.426 11.3876 17.2307C7.94226 14.4885 5.62195 12.6604 4.07507 11.3948V24.4026Z" fill="black"/>
</svg>
