<svg width="32" height="24" viewBox="0 0 32 24" fill="none" xmlns="http://www.w3.org/2000/svg">
<path d="M29 0C30.625 0 32 1.375 32 3V21C32 22.6875 30.625 24 29 24H3C1.3125 24 0 22.6875 0 21V3C0 1.375 1.3125 0 3 0H29ZM29 3H3V5.5625C4.375 6.75 6.625 8.5 11.375 12.25C12.4375 13.0625 14.5 15.0625 16 15C17.4375 15.0625 19.5 13.0625 20.5625 12.25C25.3125 8.5 27.5625 6.75 29 5.5625V3ZM3 21H29V9.4375C27.5625 10.5625 25.5 12.1875 22.4375 14.625C21 15.6875 18.625 18.0625 16 18C13.3125 18.0625 10.875 15.6875 9.5 14.625C6.4375 12.1875 4.375 10.5625 3 9.4375V21Z" fill="#FFF7F7"/>
</svg>
