<svg width="29" height="29" viewBox="0 0 29 29" fill="none" xmlns="http://www.w3.org/2000/svg">
<path d="M15 6.8125C18.9375 6.8125 22.1875 10.0625 22.1875 14C22.1875 18 18.9375 21.1875 15 21.1875C11 21.1875 7.8125 18 7.8125 14C7.8125 10.0625 11 6.8125 15 6.8125ZM15 18.6875C17.5625 18.6875 19.625 16.625 19.625 14C19.625 11.4375 17.5625 9.375 15 9.375C12.375 9.375 10.3125 11.4375 10.3125 14C10.3125 16.625 12.4375 18.6875 15 18.6875ZM24.125 6.5625C24.125 5.625 23.375 4.875 22.4375 4.875C21.5 4.875 20.75 5.625 20.75 6.5625C20.75 7.5 21.5 8.25 22.4375 8.25C23.375 8.25 24.125 7.5 24.125 6.5625ZM28.875 8.25C29 10.5625 29 17.5 28.875 19.8125C28.75 22.0625 28.25 24 26.625 25.6875C25 27.3125 23 27.8125 20.75 27.9375C18.4375 28.0625 11.5 28.0625 9.1875 27.9375C6.9375 27.8125 5 27.3125 3.3125 25.6875C1.6875 24 1.1875 22.0625 1.0625 19.8125C0.9375 17.5 0.9375 10.5625 1.0625 8.25C1.1875 6 1.6875 4 3.3125 2.375C5 0.75 6.9375 0.25 9.1875 0.125C11.5 0 18.4375 0 20.75 0.125C23 0.25 25 0.75 26.625 2.375C28.25 4 28.75 6 28.875 8.25ZM25.875 22.25C26.625 20.4375 26.4375 16.0625 26.4375 14C26.4375 12 26.625 7.625 25.875 5.75C25.375 4.5625 24.4375 3.5625 23.25 3.125C21.375 2.375 17 2.5625 15 2.5625C12.9375 2.5625 8.5625 2.375 6.75 3.125C5.5 3.625 4.5625 4.5625 4.0625 5.75C3.3125 7.625 3.5 12 3.5 14C3.5 16.0625 3.3125 20.4375 4.0625 22.25C4.5625 23.5 5.5 24.4375 6.75 24.9375C8.5625 25.6875 12.9375 25.5 15 25.5C17 25.5 21.375 25.6875 23.25 24.9375C24.4375 24.4375 25.4375 23.5 25.875 22.25Z" fill="#FFF7F7"/>
</svg>
