<svg width="33" height="33" viewBox="0 0 33 33" fill="none" xmlns="http://www.w3.org/2000/svg">
<path d="M16.4955 8.19165C20.9252 8.19165 24.5814 11.8479 24.5814 16.2776C24.5814 20.7776 20.9252 24.3635 16.4955 24.3635C11.9955 24.3635 8.40955 20.7776 8.40955 16.2776C8.40955 11.8479 11.9955 8.19165 16.4955 8.19165ZM16.4955 21.551C19.3783 21.551 21.6986 19.2307 21.6986 16.2776C21.6986 13.3948 19.3783 11.0745 16.4955 11.0745C13.5424 11.0745 11.222 13.3948 11.222 16.2776C11.222 19.2307 13.6127 21.551 16.4955 21.551ZM26.7611 7.9104C26.7611 8.96509 25.9174 9.80884 24.8627 9.80884C23.808 9.80884 22.9642 8.96509 22.9642 7.9104C22.9642 6.85571 23.808 6.01196 24.8627 6.01196C25.9174 6.01196 26.7611 6.85571 26.7611 7.9104ZM32.1049 9.80884C32.2455 12.4104 32.2455 20.2151 32.1049 22.8167C31.9642 25.3479 31.4017 27.5276 29.5736 29.426C27.7455 31.2542 25.4955 31.8167 22.9642 31.9573C20.3627 32.0979 12.558 32.0979 9.95642 31.9573C7.42517 31.8167 5.24548 31.2542 3.34705 29.426C1.51892 27.5276 0.956421 25.3479 0.815796 22.8167C0.675171 20.2151 0.675171 12.4104 0.815796 9.80884C0.956421 7.27759 1.51892 5.02759 3.34705 3.19946C5.24548 1.37134 7.42517 0.808838 9.95642 0.668213C12.558 0.527588 20.3627 0.527588 22.9642 0.668213C25.4955 0.808838 27.7455 1.37134 29.5736 3.19946C31.4017 5.02759 31.9642 7.27759 32.1049 9.80884ZM28.7299 25.5588C29.5736 23.5198 29.3627 18.5979 29.3627 16.2776C29.3627 14.0276 29.5736 9.10571 28.7299 6.99634C28.1674 5.6604 27.1127 4.5354 25.7767 4.04321C23.6674 3.19946 18.7455 3.4104 16.4955 3.4104C14.1752 3.4104 9.2533 3.19946 7.21423 4.04321C5.80798 4.60571 4.7533 5.6604 4.1908 6.99634C3.34705 9.10571 3.55798 14.0276 3.55798 16.2776C3.55798 18.5979 3.34705 23.5198 4.1908 25.5588C4.7533 26.9651 5.80798 28.0198 7.21423 28.5823C9.2533 29.426 14.1752 29.2151 16.4955 29.2151C18.7455 29.2151 23.6674 29.426 25.7767 28.5823C27.1127 28.0198 28.2377 26.9651 28.7299 25.5588Z" fill="black"/>
</svg>
