<svg width="831" height="505" viewBox="0 0 831 505" fill="none" xmlns="http://www.w3.org/2000/svg">
<path d="M25.8539 251.856H115.983V330.583H25.8539V251.856Z" fill="#3F3D56"/>
<path d="M10.3186 251.856H92.764V330.583H10.3186V251.856Z" fill="#FFD078"/>
<path d="M10.0937 330.898H93.1V251.542H10.0937V330.898ZM92.4833 330.268H10.5987V252.171H92.4833V330.268Z" fill="#3F3D56"/>
<path d="M38.5853 251.856V271.491L43.745 268.281L47.7271 271.302L52.4943 268.281L56.8691 271.491V251.856H38.5853Z" fill="#3F3D56"/>
<path d="M56.8693 290.496H75.8822V291.754H56.8693V290.496Z" fill="#3F3D56"/>
<path d="M56.8693 298.803H75.8822V300.061H56.8693V298.803Z" fill="#3F3D56"/>
<path d="M56.8693 307.11H75.8822V308.368H56.8693V307.11Z" fill="#3F3D56"/>
<path d="M20.5259 288.797H51.3167V310.382H20.5259V288.797Z" fill="#FEFEFE"/>
<path d="M20.2455 310.634H51.5972V288.419H20.2455V310.634ZM51.0363 310.005H20.8064V289.049H51.0363V310.005Z" fill="#3F3D56"/>
<path d="M113.517 344.994H89.4559C88.3342 344.994 87.2126 345.561 86.5396 346.567L74.369 363.748C72.406 366.517 74.1448 370.544 77.2855 370.544H113.517V344.994Z" fill="#F27B79"/>
<path d="M77.2858 370.859H113.797V344.68H89.4561C88.2222 344.68 87.0447 345.309 86.3155 346.379L74.1449 363.559C73.1915 364.943 72.9672 366.768 73.6963 368.342C74.3133 369.852 75.7154 370.859 77.2858 370.859ZM113.237 370.23H77.2858C75.9397 370.23 74.7619 369.411 74.1449 368.027C73.5841 366.642 73.6963 365.069 74.5376 363.936L86.708 346.756C87.381 345.812 88.3346 345.309 89.4002 345.309H113.18V370.23H113.237Z" fill="#3F3D56"/>
<path d="M358.666 237.004C358.666 239.333 356.984 241.158 354.964 241.158H342.85C340.775 241.158 339.148 239.27 339.148 237.004C339.148 234.676 340.831 232.851 342.85 232.851H354.964C356.984 232.788 358.666 234.676 358.666 237.004Z" fill="#3F3D56"/>
<path d="M312.956 241.913H327.875V265.638H312.956V241.913Z" fill="#3F3D56"/>
<path d="M351.375 417.868V279.168C351.375 267.4 342.85 257.835 332.362 257.835H277.398C266.91 257.835 258.385 267.4 258.385 279.168V406.918C258.385 417.742 250.589 426.49 240.943 426.49H225.519C215.873 426.49 208.077 417.742 208.077 406.918V351.098C208.077 351.098 208.469 334.233 217.723 331.779H122.715C122.715 331.779 83.2307 367.901 74.9301 426.112V432.531H351.375V417.868Z" fill="#FFD078"/>
<path d="M74.6496 432.846H351.655V279.168C351.655 267.211 343.018 257.52 332.362 257.52H277.398C266.742 257.52 258.105 267.211 258.105 279.168V406.918C258.105 417.554 250.421 426.175 240.943 426.175H225.519C216.041 426.175 208.357 417.554 208.357 406.918V351.099C208.357 350.91 208.806 334.485 217.836 332.093L220.191 331.464H122.659L122.603 331.527C122.49 331.59 112.563 340.778 101.795 356.888C91.8117 371.803 79.0244 395.905 74.7619 426.049L74.6496 432.846ZM351.094 432.217H75.2104V426.112C79.473 396.157 92.2043 372.118 102.131 357.329C112.395 341.974 121.873 332.974 122.827 332.093H216.041C208.245 335.932 207.852 350.406 207.796 351.099V406.918C207.796 417.868 215.76 426.805 225.519 426.805H240.943C250.701 426.805 258.666 417.868 258.666 406.918V279.168C258.666 267.589 267.078 258.149 277.398 258.149H332.362C342.681 258.149 351.094 267.589 351.094 279.168V432.217Z" fill="#3F3D56"/>
<path d="M313.91 257.772H320.64V397.227H313.91V257.772Z" fill="#3F3D56"/>
<path d="M-0.000152588 328.38H128.323V335.554H-0.000152588V328.38Z" fill="#3F3D56"/>
<path d="M144.195 432.909H233.371V453.487H144.195V432.909Z" fill="#3F3D56"/>
<path d="M112.059 494.015C89.6326 494.015 71.4529 470.827 71.4529 442.223C71.4529 413.619 89.6326 390.43 112.059 390.43C134.485 390.43 152.664 413.619 152.664 442.223C152.664 470.827 134.485 494.015 112.059 494.015Z" fill="#2F2E41"/>
<path d="M105.216 473.625C90.6269 473.625 78.8 458.523 78.8 439.894C78.8 421.265 90.6269 406.163 105.216 406.163C119.805 406.163 131.632 421.265 131.632 439.894C131.632 458.523 119.805 473.625 105.216 473.625Z" fill="#FEFEFE"/>
<path d="M105.216 473.94C119.967 473.94 131.913 458.648 131.913 439.894C131.913 421.141 119.911 405.849 105.216 405.849C90.5218 405.849 78.5195 421.141 78.5195 439.894C78.5195 458.648 90.4657 473.94 105.216 473.94ZM105.216 406.478C119.63 406.478 131.352 421.455 131.352 439.894C131.352 458.333 119.63 473.311 105.216 473.311C90.8022 473.311 79.0803 458.333 79.0803 439.894C79.0803 421.455 90.8022 406.478 105.216 406.478Z" fill="#3F3D56"/>
<path d="M119.181 440.083C119.181 447.572 116.04 454.243 106.001 454.243C100.112 454.243 97.9246 447.572 97.9246 440.083C97.9246 432.594 100.168 426.49 106.001 426.49C116.04 426.49 119.181 432.531 119.181 440.083Z" fill="#3F3D56"/>
<path d="M105.329 453.676C99.4433 453.676 94.6723 447.591 94.6723 440.083C94.6723 432.576 99.4433 426.49 105.329 426.49C111.214 426.49 115.985 432.576 115.985 440.083C115.985 447.591 111.214 453.676 105.329 453.676Z" fill="#FEFEFE"/>
<path d="M105.328 453.928C111.33 453.928 116.265 447.698 116.265 440.02C116.265 432.343 111.386 426.112 105.328 426.112C99.2713 426.112 94.3919 432.343 94.3919 440.02C94.3919 447.698 99.3274 453.928 105.328 453.928ZM105.328 426.805C111.049 426.805 115.704 432.783 115.704 440.083C115.704 447.383 111.049 453.361 105.328 453.361C99.6078 453.361 94.9527 447.383 94.9527 440.083C94.9527 432.783 99.6078 426.805 105.328 426.805Z" fill="#3F3D56"/>
<path d="M340.831 494.015C318.405 494.015 300.225 470.827 300.225 442.223C300.225 413.619 318.405 390.43 340.831 390.43C363.257 390.43 381.436 413.619 381.436 442.223C381.436 470.827 363.257 494.015 340.831 494.015Z" fill="#2F2E41"/>
<path d="M333.988 473.625C319.399 473.625 307.572 458.523 307.572 439.894C307.572 421.265 319.399 406.163 333.988 406.163C348.577 406.163 360.404 421.265 360.404 439.894C360.404 458.523 348.577 473.625 333.988 473.625Z" fill="#FEFEFE"/>
<path d="M333.988 473.94C348.739 473.94 360.685 458.648 360.685 439.894C360.685 421.141 348.683 405.849 333.988 405.849C319.294 405.849 307.292 421.141 307.292 439.894C307.292 458.648 319.238 473.94 333.988 473.94ZM333.988 406.478C348.402 406.478 360.124 421.455 360.124 439.894C360.124 458.333 348.402 473.311 333.988 473.311C319.574 473.311 307.853 458.333 307.853 439.894C307.853 421.455 319.574 406.478 333.988 406.478Z" fill="#3F3D56"/>
<path d="M347.954 440.083C347.954 447.572 344.813 453.676 334.774 453.676C328.885 453.676 326.697 447.572 326.697 440.083C326.697 432.594 328.941 426.49 334.774 426.49C344.813 426.49 347.954 432.531 347.954 440.083Z" fill="#3F3D56"/>
<path d="M334.101 453.676C328.215 453.676 323.445 447.591 323.445 440.083C323.445 432.576 328.215 426.49 334.101 426.49C339.986 426.49 344.757 432.576 344.757 440.083C344.757 447.591 339.986 453.676 334.101 453.676Z" fill="#FEFEFE"/>
<path d="M334.1 453.928C340.102 453.928 345.037 447.698 345.037 440.02C345.037 432.343 340.158 426.112 334.1 426.112C328.043 426.112 323.164 432.343 323.164 440.02C323.164 447.698 328.099 453.928 334.1 453.928ZM334.1 426.805C339.821 426.805 344.476 432.783 344.476 440.083C344.476 447.383 339.821 453.361 334.1 453.361C328.38 453.361 323.725 447.383 323.725 440.083C323.725 432.783 328.436 426.805 334.1 426.805Z" fill="#3F3D56"/>
<path d="M37.4094 426.301H42.5693C43.2423 420.323 47.785 415.729 53.2814 415.729H167.92V440.02H53.2814C48.0655 440.02 43.6909 435.867 42.6813 430.329H37.4094V426.301Z" fill="#3F3D56"/>
<path d="M57.768 432.531C57.768 432.531 50.6453 368.467 117.331 351.036C141.391 344.742 196.635 340.652 184.24 432.531H57.768Z" fill="#FFD078"/>
<path d="M57.4877 432.846H184.409L184.465 432.594C189.064 398.423 184.745 374.131 171.621 360.538C155.581 343.861 130.623 347.26 117.219 350.784C101.963 354.749 89.3442 361.545 79.6414 370.922C71.9016 378.411 66.0129 387.599 62.1991 398.234C55.6932 416.295 57.3757 432.406 57.4318 432.594L57.4877 432.846ZM183.96 432.217H57.9927C57.8244 430.014 56.7588 415.036 62.7599 398.423C68.705 381.935 83.0066 360.349 117.331 351.35C130.623 347.889 155.357 344.491 171.229 360.979C184.241 374.446 188.503 398.423 183.96 432.217Z" fill="#3F3D56"/>
<path d="M211.442 335.554H127.819C119.126 335.554 112.059 327.625 112.059 317.871C112.059 307.55 119.911 299.432 129.052 300.25L212.395 307.676C218.845 308.242 223.837 314.284 223.837 321.584C223.837 329.261 218.284 335.554 211.442 335.554Z" fill="#3F3D56"/>
<path d="M297.14 425.42H392.71C392.71 425.42 391.139 409.625 381.661 395.276C360.909 364.125 317.78 368.405 302.524 403.269C299.776 409.436 297.869 416.736 297.14 425.42Z" fill="#FFD078"/>
<path d="M296.804 425.735H392.99L392.934 425.357C392.934 425.168 391.252 409.31 381.829 395.087C372.014 380.298 356.31 372.495 339.821 374.194C323.444 375.893 309.423 386.717 302.188 403.142C299.328 409.75 297.477 417.176 296.804 425.357V425.735ZM392.373 425.105H297.477C298.15 417.176 299.945 409.876 302.749 403.457C309.872 387.221 323.725 376.523 339.933 374.886C356.198 373.187 371.734 380.928 381.436 395.528C389.961 408.429 392.037 422.714 392.373 425.105Z" fill="#3F3D56"/>
<path d="M57.0951 436.685H302.917V428.378H392.597V420.826H302.749C299.103 420.826 296.187 424.162 296.187 428.189V429.133H57.0951V436.685Z" fill="#3F3D56"/>
<path d="M229.558 477.401H245.99V469.849H231.857L200.225 442.789L196.187 448.768L229.558 477.401Z" fill="#3F3D56"/>
<path d="M312.451 249.78H332.923C334.156 249.78 335.39 249.591 336.512 249.276C343.018 247.451 347.841 240.843 347.841 232.977C347.841 228.32 346.159 224.167 343.467 221.146C341.56 219.006 339.204 217.496 336.512 216.741C335.334 216.426 334.156 216.237 332.866 216.237H329.894C319.63 216.237 309.816 221.964 304.487 231.844C304.207 232.348 303.927 232.914 303.646 233.48C300.225 240.906 304.992 249.78 312.451 249.78Z" fill="#FFD078"/>
<path d="M312.452 250.094H332.923C334.157 250.094 335.39 249.905 336.624 249.591C343.411 247.703 348.178 240.906 348.178 232.977C348.178 228.383 346.608 224.104 343.691 220.894C341.728 218.691 339.26 217.118 336.624 216.363C335.39 216.048 334.157 215.86 332.923 215.86H329.95C319.406 215.86 309.591 221.901 304.319 231.655C304.039 232.222 303.758 232.725 303.478 233.291C301.795 236.816 301.851 241.032 303.702 244.493C305.609 248.017 308.862 250.094 312.452 250.094ZM332.923 216.552C334.1 216.552 335.334 216.741 336.456 217.055C339.036 217.747 341.392 219.258 343.298 221.397C346.047 224.481 347.617 228.635 347.617 233.04C347.617 240.654 343.018 247.199 336.512 249.024C335.334 249.339 334.157 249.528 332.979 249.528H312.508C309.086 249.528 306.002 247.577 304.263 244.241C302.524 240.969 302.412 237.004 304.039 233.669C304.319 233.103 304.6 232.599 304.88 232.033C310.04 222.467 319.687 216.552 330.006 216.552H332.923Z" fill="#3F3D56"/>
<path d="M326.249 233.04C326.249 239.711 328.828 245.689 332.923 249.843H332.979C341.223 249.843 347.954 242.354 347.954 233.04C347.954 228.383 346.271 224.23 343.579 221.209C340.887 218.188 337.129 216.3 333.035 216.3H332.979C328.772 220.391 326.249 226.369 326.249 233.04Z" fill="#3F3D56"/>
<path d="M330.342 233.04C330.342 239.459 332.698 245.186 336.511 249.339C343.017 247.514 347.841 240.906 347.841 233.04C347.841 228.383 346.158 224.229 343.466 221.209C341.559 219.069 339.203 217.559 336.511 216.804C332.698 220.831 330.342 226.621 330.342 233.04Z" fill="#FEFEFE"/>
<path d="M336.456 249.654L336.624 249.591C343.411 247.703 348.178 240.906 348.178 232.977C348.178 228.383 346.608 224.104 343.691 220.894C341.728 218.692 339.26 217.118 336.624 216.363L336.456 216.3L336.344 216.426C332.306 220.768 330.062 226.621 330.062 232.914C330.062 239.207 332.306 245.06 336.344 249.402L336.456 249.654ZM336.624 217.118C339.148 217.874 341.448 219.321 343.298 221.398C346.047 224.481 347.617 228.635 347.617 233.04C347.617 240.592 343.13 247.074 336.624 248.962C332.754 244.745 330.623 239.081 330.623 233.04C330.623 226.936 332.754 221.335 336.624 217.118Z" fill="#3F3D56"/>
<path d="M292.317 234.487H303.366V239.585H292.317V234.487Z" fill="#FFD078"/>
<path d="M292.093 239.962H303.702V234.235H292.093V239.962ZM303.085 239.333H292.597V234.865H303.085V239.333Z" fill="#3F3D56"/>
<path d="M307.516 232.788H303.085C301.01 232.788 299.384 234.676 299.384 236.941C299.384 239.27 301.066 241.095 303.085 241.095H307.516C309.591 241.095 311.218 239.207 311.218 236.941C311.218 234.676 309.591 232.788 307.516 232.788Z" fill="#3F3D56"/>
<path d="M294.448 237.004C294.448 239.333 292.766 241.158 290.747 241.158H278.632C276.557 241.158 274.93 239.27 274.93 237.004C274.93 234.676 276.613 232.851 278.632 232.851H290.747C292.766 232.788 294.448 234.676 294.448 237.004Z" fill="#3F3D56"/>
<path d="M94.2795 416.421H149.019V419.945H94.2795V416.421Z" fill="white"/>
<path d="M93.9991 420.26H149.299V416.106H93.9991V420.26ZM148.738 419.63H94.56V416.736H148.738V419.63Z" fill="black"/>
<path d="M94.2795 407.107H149.019V410.631H94.2795V407.107Z" fill="white"/>
<path d="M93.9991 410.946H149.299V406.793H93.9991V410.946ZM148.738 410.317H94.56V407.422H148.738V410.317Z" fill="black"/>
<path d="M94.2795 397.856H149.019V401.38H94.2795V397.856Z" fill="white"/>
<path d="M93.9991 401.695H149.299V397.542H93.9991V401.695ZM148.738 401.066H94.56V398.171H148.738V401.066Z" fill="black"/>
<path d="M177.622 477.338H292.597V478.597H177.622V477.338Z" fill="#3F3D56"/>
<path d="M401.579 503.361H761.525V504.334H401.579V503.361Z" fill="#3F3D56"/>
<path d="M483.582 503.231H527.438C527.438 503.231 524.67 492.634 505.239 483.926L505.299 481.496L505.48 468.334H484.725L484.365 479.944L483.582 503.231Z" fill="#3F3D56"/>
<path d="M483.222 503.569H527.799L527.679 503.164C527.558 502.759 524.671 492.364 505.48 483.724L505.661 468.063H484.305L483.222 503.569ZM527.017 502.894H483.883L484.967 468.671H505.119L504.939 484.129L505.119 484.196C521.964 491.824 526.235 500.869 527.017 502.894Z" fill="#3F3D56"/>
<path d="M426.432 503.232H470.288C470.288 503.232 467.52 492.634 448.089 483.926L448.27 482.306L449.954 468.334H429.2L428.237 480.484L426.432 503.232Z" fill="#3F3D56"/>
<path d="M426.071 503.569H470.709L470.588 503.164C470.468 502.759 467.58 492.364 448.39 483.724L450.255 467.996H428.899L426.071 503.569ZM469.867 502.894H426.733L429.44 468.671H449.593L447.728 484.129L447.969 484.196C464.874 491.824 469.085 500.869 469.867 502.894Z" fill="#3F3D56"/>
<path d="M685.473 503.232H729.328L726.501 478.594L725.358 468.334H704.603L707.07 480.956L707.671 486.626C687.278 493.646 685.473 503.232 685.473 503.232Z" fill="#3F3D56"/>
<path d="M685.112 503.569H729.689L725.658 467.996H704.242L706.829 481.024L707.37 486.356C687.278 493.309 685.232 502.759 685.172 503.164L685.112 503.569ZM729.027 502.894H685.894C686.556 501.004 690.226 492.971 707.792 486.964L708.032 486.896L707.431 480.956L705.024 468.738H725.117L729.027 502.894Z" fill="#3F3D56"/>
<path d="M634.94 503.232H678.795L677.713 478.999L677.231 468.334H656.477L657.018 481.294L657.139 485.884C637.708 494.659 634.94 503.232 634.94 503.232Z" fill="#3F3D56"/>
<path d="M634.519 503.569H679.156L677.532 467.996H656.176L656.777 481.361L656.898 485.749C637.707 494.389 634.82 502.826 634.7 503.164L634.519 503.569ZM678.494 502.894H635.421C636.324 501.004 640.776 493.646 657.259 486.221L657.439 486.154L657.319 481.294L656.777 468.671H676.93L678.494 502.894Z" fill="#3F3D56"/>
<path d="M518.053 19.6554L487.553 11.9603L484.244 24.988C483.402 24.313 482.56 23.908 481.778 23.908C478.168 23.908 477.447 28.768 477.447 28.768C476.424 34.0331 479.492 37.2731 480.875 39.5682L470.408 77.1662L496.336 81.6887L498.562 57.6584C520.88 70.2811 518.053 19.6554 518.053 19.6554Z" fill="#FFAC71"/>
<path d="M496.637 81.9584L498.863 58.0631C503.254 60.4257 507.044 60.5607 510.052 58.3331C520.038 50.908 518.474 20.8702 518.414 19.5877V19.3176L487.373 11.4875L484.124 24.3127C483.342 23.7052 482.56 23.4352 481.838 23.4352C478.048 23.4352 477.206 28.4978 477.206 28.5653C476.303 33.1553 478.409 36.1929 479.913 38.4204C480.153 38.7579 480.394 39.0954 480.575 39.4329L470.047 77.2334L496.637 81.9584ZM498.321 57.0506L496.096 81.2159L470.829 76.7609L481.236 39.4329L481.176 39.2979C480.936 38.9604 480.695 38.5554 480.394 38.1504C478.951 35.9904 476.965 33.0878 477.807 28.8353C477.867 28.6328 478.529 24.2452 481.838 24.2452C482.56 24.2452 483.342 24.5827 484.124 25.2577L484.485 25.5277L487.854 12.3651L517.873 19.9252C517.993 22.8952 519.016 50.9755 509.751 57.7931C506.864 59.9531 503.134 59.7507 498.803 57.3206L498.321 57.0506Z" fill="#3F3D56"/>
<path d="M527.197 4.94009C525.814 4.60258 522.324 4.94008 520.219 6.89761C520.339 6.6276 520.459 6.35761 520.58 6.08761C523.708 -4.44253 510.534 3.38757 503.555 4.94009C502.111 5.27759 498.923 5.7501 498.923 5.7501C478.048 0.417536 480.154 24.3128 480.154 24.3128C485.628 23.4353 487.252 31.8054 487.252 31.8054C492.847 28.8354 494.592 24.5828 494.772 22.7603C500.186 25.5278 514.083 30.7929 525.573 21.4778C533.454 15.0652 530.686 5.68259 527.197 4.94009Z" fill="#2F2E41"/>
<path d="M648.355 105.044C648.355 105.044 656.838 87.2911 657.56 78.4485L654.01 59.0083C654.01 59.0083 653.589 40.378 675.426 44.9006C675.426 44.9006 675.306 36.1255 680.48 34.033C680.48 34.033 677.953 38.9605 678.855 43.8206C678.855 43.8206 683.067 33.0204 691.008 38.6905C691.008 38.6905 697.144 42.4706 695.519 49.3556C695.519 49.3556 695.64 57.1857 686.074 57.3208C686.074 57.3208 686.195 67.1084 707.31 80.406C707.31 80.406 724.876 89.8561 723.433 110.444C721.989 131.032 705.626 143.992 705.626 143.992L645.468 144.059L648.355 105.044Z" fill="#2F2E41"/>
<path d="M681.743 112.604L679.156 78.6514C679.156 78.6514 683.668 75.6814 682.525 69.8763C682.525 69.8763 681.442 65.2187 677.291 68.7963L677.171 60.5612C677.171 60.5612 662.613 66.7037 654.131 57.4561C654.131 57.4561 647.995 89.5865 660.929 89.519L658.161 116.519L681.743 112.604Z" fill="#FFAC71"/>
<path d="M657.86 116.924L682.104 112.941L679.517 78.8535C680.36 78.246 683.909 75.2085 682.886 69.8084C682.886 69.7409 682.405 67.7834 680.961 67.2434C679.999 66.9059 678.916 67.1759 677.652 68.1209L677.532 60.0883L677.111 60.2233C676.991 60.2908 662.673 66.1634 654.371 57.1858L654.01 56.7808L653.89 57.3883C653.709 58.2658 649.799 79.1911 655.454 86.9536C656.778 88.7762 658.522 89.7212 660.628 89.7887L657.86 116.924ZM681.442 112.334L658.582 116.114L661.349 89.1812H660.988C658.883 89.1812 657.199 88.3037 655.935 86.5486C651.002 79.7311 653.83 61.6408 654.431 58.1308C662.192 65.9609 674.584 61.9108 676.991 61.0333L677.111 69.4709L677.592 69.0659C678.855 67.9859 679.938 67.5809 680.781 67.9184C681.924 68.3234 682.345 70.0109 682.345 70.0109C683.427 75.546 679.277 78.3135 679.096 78.4485L678.916 78.5835V78.786L681.442 112.334Z" fill="#2F2E41"/>
<path d="M484.305 480.011L505.239 481.496L505.42 468.333H484.666L484.305 480.011Z" fill="#3F3D56"/>
<path d="M428.237 480.483L448.27 482.306L449.955 468.333H429.2L428.237 480.483Z" fill="#3F3D56"/>
<path d="M458.136 196.71L458.978 201.84L464.092 233.498L477.327 314.904L478.108 341.769L482.139 476.366H517.151L521.062 315.714L515.527 226.141L513.662 196.71H458.136Z" fill="#CDCBCC"/>
<path d="M481.838 476.704H517.452V476.366L521.362 315.714L513.963 196.373H457.775L477.026 314.972L481.838 476.704ZM516.85 476.029H482.38L477.567 314.904L458.437 197.048H513.301L520.761 315.782L516.85 476.029Z" fill="#3F3D56"/>
<path d="M704.603 468.333L707.13 480.956L726.561 478.593L725.358 468.333H704.603Z" fill="#3F3D56"/>
<path d="M656.477 468.333L657.018 481.361L677.713 478.999L677.231 468.333H656.477Z" fill="#3F3D56"/>
<path d="M422.523 477.041H457.896L478.109 341.769L482.62 311.462L490.321 233.296L493.389 201.84H435.938L436.179 226.681L437.021 308.627L422.523 477.041Z" fill="#CDCBCC"/>
<path d="M422.222 477.379H458.196L458.256 477.109L482.981 311.529L493.81 201.503H435.697L436.78 308.626L422.222 477.379ZM457.655 476.704H422.883L437.321 308.694L436.239 202.178H493.088L482.319 311.394L457.655 476.704Z" fill="#3F3D56"/>
<path d="M639.753 295.126L649.017 476.366H681.021L679.938 361.48L679.277 295.936L683.909 235.186L685.713 210.953L658.883 210.48L643.723 210.143L642.46 237.346L639.753 295.126Z" fill="#3F3D56"/>
<path d="M648.777 476.704H681.322V476.366L679.578 295.936L686.075 210.615L643.483 209.805L639.452 295.126L648.777 476.704ZM680.721 476.029H649.318L640.054 295.126L644.024 210.48L685.413 211.29L678.976 295.936L680.721 476.029Z" fill="#3F3D56"/>
<path d="M435.938 201.84L436.178 226.68C446.165 230.393 455.549 232.553 464.092 233.498C473.897 234.645 482.741 234.308 490.321 233.228C501.69 231.675 510.353 228.435 515.466 226.073L513.662 196.643H458.136L458.978 201.773H435.938V201.84Z" fill="#3F3D56"/>
<path d="M658.522 207.645L658.883 210.48L662.312 238.493L671.396 312.339L679.938 361.48L699.67 475.286L728.967 475.961L715.492 308.762L711.762 221.416L711.1 206.025L658.522 207.645Z" fill="#3F3D56"/>
<path d="M729.328 476.298V475.893L715.853 308.694L711.401 205.62L658.222 207.24L671.095 312.406L699.43 475.623L729.328 476.298ZM710.8 206.363L715.191 308.761L728.666 475.556L699.911 474.881L671.697 312.204L658.883 207.915L710.8 206.363Z" fill="#3F3D56"/>
<path d="M646.25 109.904L622.909 143.992L590.303 151.147V177.472L628.503 173.422C631.15 173.152 633.617 172.072 635.782 170.385L651.062 158.234L646.25 109.904Z" fill="#CDCBCC"/>
<path d="M590.002 177.877L628.563 173.76C631.21 173.49 633.797 172.41 636.023 170.655L651.484 158.369L646.551 109.026L622.788 143.654L590.062 150.877V177.877H590.002ZM650.822 158.099L635.662 170.182C633.557 171.87 631.09 172.882 628.503 173.152L590.604 177.202V151.484L623.089 144.329L623.149 144.262L646.069 110.849L650.822 158.099Z" fill="#3F3D56"/>
<path d="M497.84 73.0485C497.84 73.0485 493.328 84.9962 473.055 61.4384L438.284 75.8161C433.351 78.2461 429.862 83.3087 428.959 89.2488L423.485 123.944H442.495L433.712 216.69C433.712 216.69 459.339 224.318 478.951 224.79C511.316 225.6 518.474 219.12 518.474 219.12L517.031 186.18L516.79 111.254C517.151 100.589 513.181 92.5563 507.526 83.9162L497.84 73.0485Z" fill="#FFD078"/>
<path d="M484.365 225.195C511.857 225.195 518.354 219.593 518.595 219.39L518.715 219.255L517.271 186.112L517.031 111.186C517.391 100.724 513.541 92.556 507.706 83.6459L497.72 72.4408L497.539 72.9133C497.479 72.9808 496.637 75.0733 494.11 75.6133C490.802 76.2883 484.545 74.3308 473.236 61.1681L473.115 61.0331L472.935 61.1006L438.163 75.4783C433.11 77.9759 429.561 83.1059 428.659 89.181L423.124 124.281H442.134L433.351 216.96L433.591 217.028C433.832 217.095 459.459 224.655 478.89 225.195C480.755 225.195 482.62 225.195 484.365 225.195ZM518.113 218.918C517.03 219.728 508.548 225.195 478.89 224.453C460.602 223.98 436.72 217.163 434.013 216.42L442.796 123.539H423.846L429.26 89.2485C430.162 83.3759 433.531 78.4484 438.404 76.0858L472.995 61.8431C484.425 75.0733 490.922 77.0308 494.291 76.2883C496.457 75.8158 497.539 74.3308 497.96 73.5883L507.345 84.0509C513.241 93.0961 516.85 100.859 516.489 111.186L516.73 186.112L518.113 218.918Z" fill="#3F3D56"/>
<path d="M518.595 107.879H614.547V191.715H518.595V107.879Z" fill="#3F3D56"/>
<path d="M502.051 107.879H589.822V191.715H502.051V107.879Z" fill="#FEFEFE"/>
<path d="M501.75 192.053H590.122V107.542H501.75V192.053ZM589.521 191.378H502.352V108.217H589.521V191.378Z" fill="#3F3D56"/>
<path d="M532.13 107.879V128.804L537.605 125.429L541.816 128.602L546.869 125.429L551.561 128.804V107.879H532.13Z" fill="#3F3D56"/>
<path d="M551.501 149.054H571.774V150.404H551.501V149.054Z" fill="#3F3D56"/>
<path d="M551.501 157.897H571.774V159.247H551.501V157.897Z" fill="#3F3D56"/>
<path d="M551.501 166.74H571.774V168.09H551.501V166.74Z" fill="#3F3D56"/>
<path d="M512.88 147.232H545.666V170.182H512.88V147.232Z" fill="#FEFEFE"/>
<path d="M512.579 170.52H545.967V146.894H512.579V170.52ZM545.365 169.845H513.18V147.569H545.365V169.845Z" fill="#3F3D56"/>
<path d="M642.46 237.345C647.513 238.155 654.431 238.83 662.312 238.493C668.929 238.223 676.269 237.278 683.849 235.185C693.053 232.62 702.618 228.3 711.702 221.415L711.04 206.025L658.522 207.645L658.883 210.48L643.723 210.21L642.46 237.345Z" fill="#3F3D56"/>
<path d="M590.002 194.483C590.544 195.495 591.266 196.305 592.108 196.98C592.95 197.655 593.913 198.128 594.935 198.33L599.688 199.545C602.756 200.288 605.884 200.693 609.012 200.693H613.163C614.366 200.693 615.569 200.355 616.592 199.68L621.044 196.913L625.736 196.305L643.182 193.943V178.89L628.503 181.455L621.706 182.67L606.967 178.08C606.967 178.08 604.38 184.088 612.441 187.125L604.621 191.445H591.506C590.123 191.31 589.22 193.133 590.002 194.483Z" fill="#E78D4C"/>
<path d="M609.072 200.962H613.223C614.486 200.962 615.75 200.625 616.833 199.882L621.224 197.182L643.543 194.145V178.417L621.766 182.265L606.846 177.607L606.726 177.877C606.666 177.945 605.764 180.105 606.726 182.535C607.448 184.492 609.132 186.045 611.719 187.125L604.621 191.04H591.566C590.784 191.04 590.062 191.512 589.701 192.255C589.34 192.997 589.34 193.942 589.761 194.685C590.363 195.697 591.085 196.575 591.927 197.25C592.83 197.925 593.792 198.397 594.815 198.667L599.567 199.882C602.756 200.625 605.884 200.962 609.072 200.962ZM642.941 193.605L620.983 196.575L616.532 199.342C615.509 199.95 614.366 200.287 613.223 200.287H609.072C605.944 200.287 602.816 199.882 599.808 199.14L595.056 197.925C594.093 197.655 593.191 197.25 592.348 196.575C591.566 195.967 590.844 195.157 590.303 194.212C590.002 193.672 590.002 192.997 590.243 192.457C590.484 191.917 591.025 191.58 591.566 191.58H604.741L613.283 186.855L612.561 186.585C609.794 185.572 607.989 184.02 607.268 182.13C606.606 180.442 606.967 178.89 607.207 178.282L621.766 182.805L642.941 179.092V193.605Z" fill="#3F3D56"/>
<path d="M531.047 56.3085H590.544V108.284H531.047V56.3085Z" fill="#3F3D56"/>
<path d="M520.82 56.3084H575.203V108.284H520.82V56.3084Z" fill="#FFD078"/>
<path d="M520.52 108.621H575.504V55.9708H520.52V108.621ZM574.903 107.946H521.121V56.6458H574.903V107.946Z" fill="#3F3D56"/>
<path d="M539.41 56.3085V69.2686L542.838 67.1761L545.485 69.1336L548.614 67.1761L551.501 69.2686V56.3085H539.41Z" fill="#3F3D56"/>
<path d="M551.441 81.5538H564.014V82.9037H551.441V81.5538Z" fill="#3F3D56"/>
<path d="M551.441 87.0212H564.014V88.3711H551.441V87.0212Z" fill="#3F3D56"/>
<path d="M551.441 92.5563H564.014V93.9062H551.441V92.5563Z" fill="#3F3D56"/>
<path d="M527.498 80.6763H547.832V94.919H527.498V80.6763Z" fill="#FEFEFE"/>
<path d="M527.197 95.2564H548.132V80.3387H527.197V95.2564ZM547.531 94.5813H527.799V81.0137H547.531V94.5813Z" fill="#3F3D56"/>
<path d="M625.796 196.238L643.242 193.875V178.822L628.564 181.387L625.796 196.238Z" fill="#3F3D56"/>
<path d="M631.09 179.903L642.099 177.54L643.904 116.924C644.024 113.077 645.588 109.432 648.235 106.934L659.485 96.4042C659.485 96.4042 661.65 111.862 682.645 96.4042L702.077 104.234C707.551 106.462 711.702 111.659 713.025 118.005L725.298 184.898C726.441 191.108 722.35 196.981 716.695 197.183L710.86 197.386L713.687 218.716C713.687 218.716 693.654 228.368 673.08 229.786C649.378 231.473 641.618 225.128 641.919 224.251L643.122 201.571L631.09 202.111V179.903Z" fill="#CDCBCC"/>
<path d="M665.38 230.528C667.726 230.528 670.313 230.46 673.08 230.258C693.474 228.84 713.567 219.255 713.807 219.12L714.048 218.985L713.988 218.715L711.22 197.79L716.755 197.587C719.522 197.452 722.109 196.035 723.853 193.537C725.598 191.107 726.26 187.935 725.658 184.897L713.386 118.004C712.002 111.456 707.851 106.259 702.197 103.964L682.645 96.0662L682.525 96.1337C674.404 102.141 667.967 104.234 663.876 102.209C660.447 100.521 659.845 96.4037 659.845 96.4037L659.785 95.7962L648.175 106.731C645.468 109.296 643.844 113.009 643.723 116.991L641.918 177.337L630.909 179.7V202.65L642.941 202.11L641.738 224.385C641.678 224.588 641.738 224.723 641.858 224.925C642.58 226.208 648.897 230.528 665.38 230.528ZM713.326 218.58C711.1 219.593 692.21 228.165 673.02 229.515C650.34 231.135 642.58 225.33 642.219 224.385V224.318L643.422 201.233L631.331 201.773V180.105L642.339 177.742L644.144 116.856C644.264 113.076 645.829 109.566 648.355 107.136L659.184 96.9437C659.484 98.2262 660.507 101.264 663.455 102.681C667.786 104.841 674.163 102.816 682.585 96.6737L701.896 104.436C707.31 106.596 711.341 111.659 712.664 118.004L724.936 184.897C725.478 187.732 724.816 190.702 723.252 192.997C721.628 195.292 719.221 196.642 716.635 196.777L710.438 196.98L713.326 218.58Z" fill="#3F3D56"/>
<path d="M710.809 197.003L710.844 197.678L642.614 202.08L642.579 201.405L710.809 197.003Z" fill="#3F3D56"/>
<path d="M641.858 177.877L693.774 165.862L689.082 136.837L688.481 136.972L693.113 165.322L641.738 177.27L641.858 177.877Z" fill="#3F3D56"/>
<path d="M420.657 166.605C420.116 173.422 423.906 179.768 429.741 181.793L491.223 203.258L497.058 205.553C499.284 206.43 501.69 206.7 504.036 206.363L515.827 204.743C516.549 204.608 517.331 204.405 517.993 204.135L531.769 198.465C533.514 197.723 535.078 196.373 536.101 194.618L536.281 194.28C537.003 193.065 536.221 191.445 534.898 191.445H512.759C519.196 186.855 518.715 182.805 518.715 182.805L505.119 184.898L495.193 186.248L448.33 160.597L453.744 130.289L454.827 124.147H423.665L423.364 127.724L420.657 166.605Z" fill="#FFAC71"/>
<path d="M502.171 206.835C502.833 206.835 503.495 206.768 504.097 206.7L515.888 205.08C516.67 204.945 517.452 204.743 518.113 204.473L531.89 198.803C533.755 198.06 535.258 196.71 536.341 194.82L536.522 194.482C536.943 193.807 536.943 192.93 536.582 192.255C536.221 191.512 535.619 191.107 534.837 191.107H513.722C519.377 186.72 519.016 182.94 518.956 182.737L518.895 182.4L504.999 184.492L495.133 185.775L448.571 160.327L455.128 123.674H423.364L420.116 166.537C419.575 173.557 423.425 179.97 429.44 182.062L490.922 203.528L496.757 205.823C498.622 206.498 500.427 206.835 502.171 206.835ZM535.018 191.782C535.499 191.782 535.98 192.052 536.221 192.592C536.461 193.065 536.461 193.672 536.161 194.145L535.98 194.482C534.958 196.17 533.514 197.452 531.829 198.195L518.053 203.865C517.392 204.135 516.67 204.338 515.948 204.473L504.157 206.093C501.871 206.43 499.465 206.16 497.299 205.283L491.463 202.988L429.982 181.522C424.267 179.497 420.597 173.422 421.079 166.672L424.267 124.417H454.767L448.27 160.732L448.45 160.867L495.374 186.517L505.42 185.167L518.655 183.142C518.595 184.155 517.933 187.462 512.819 191.107L511.977 191.715H535.018V191.782Z" fill="#3F3D56"/>
<path d="M457.702 109.516L458.287 109.674L454.959 125.231L454.374 125.073L457.702 109.516Z" fill="#3F3D56"/>
<path d="M423.605 127.589L453.865 130.222L455.008 124.011H423.846L423.605 127.589Z" fill="#3F3D56"/>
<path d="M585.694 304.945C584.113 304.945 582.547 305.294 581.086 305.972C579.625 306.651 578.297 307.646 577.179 308.9C576.06 310.154 575.173 311.644 574.567 313.283C573.962 314.922 573.65 316.679 573.649 318.454C573.649 314.87 572.381 311.433 570.123 308.899C567.865 306.364 564.803 304.941 561.609 304.941C564.803 304.941 567.865 303.517 570.123 300.983C572.381 298.449 573.649 295.011 573.649 291.427C573.649 295.011 574.918 298.449 577.176 300.983C579.434 303.517 582.496 304.941 585.69 304.941L585.694 304.945Z" fill="#555185"/>
<path d="M617.59 390.341C620.302 390.341 622.502 387.873 622.502 384.828C622.502 381.784 620.302 379.315 617.59 379.315C614.877 379.315 612.678 381.784 612.678 384.828C612.678 387.873 614.877 390.341 617.59 390.341Z" fill="#FFD078"/>
<path d="M416.043 327.531C418.755 327.531 420.955 325.063 420.955 322.018C420.955 318.974 418.755 316.505 416.043 316.505C413.33 316.505 411.131 318.974 411.131 322.018C411.131 325.063 413.33 327.531 416.043 327.531Z" fill="#FFD078"/>
<path d="M583.866 237.632C587.332 237.632 590.142 234.478 590.142 230.588C590.142 226.698 587.332 223.545 583.866 223.545C580.4 223.545 577.59 226.698 577.59 230.588C577.59 234.478 580.4 237.632 583.866 237.632Z" fill="#FFD078"/>
<path d="M240.05 384.479C237.432 384.479 234.92 385.647 233.069 387.725C231.218 389.803 230.177 392.621 230.177 395.56C230.177 392.621 229.137 389.803 227.286 387.725C225.434 385.647 222.923 384.479 220.305 384.479C222.923 384.479 225.434 383.312 227.286 381.234C229.137 379.156 230.177 376.338 230.177 373.399C230.177 376.338 231.218 379.156 233.069 381.234C234.92 383.312 237.432 384.479 240.05 384.479Z" fill="#555185"/>
<path d="M297.777 377.206C299.587 377.206 301.053 375.56 301.053 373.529C301.053 371.499 299.587 369.853 297.777 369.853C295.968 369.853 294.501 371.499 294.501 373.529C294.501 375.56 295.968 377.206 297.777 377.206Z" fill="#FFD078"/>
<path d="M390.499 192.234C388.918 192.233 387.352 192.582 385.891 193.261C384.43 193.939 383.102 194.934 381.984 196.189C380.866 197.443 379.978 198.932 379.373 200.572C378.767 202.211 378.455 203.968 378.455 205.743C378.455 202.159 377.186 198.722 374.928 196.187C372.67 193.653 369.608 192.229 366.415 192.229C369.608 192.229 372.67 190.806 374.928 188.272C377.186 185.737 378.455 182.3 378.455 178.716C378.455 182.3 379.723 185.737 381.981 188.272C384.239 190.806 387.302 192.229 390.495 192.229L390.499 192.234Z" fill="#555185"/>
<path d="M373.829 106.599L373.838 106.599L373.847 106.598C375.415 106.543 376.979 106.842 378.447 107.478C379.914 108.116 381.257 109.079 382.393 110.315C383.529 111.55 384.436 113.033 385.055 114.676C385.675 116.319 385.995 118.087 385.995 119.874C385.995 121.661 385.675 123.429 385.055 125.071C384.436 126.714 383.529 128.197 382.393 129.433C381.257 130.669 379.914 131.632 378.447 132.269C376.979 132.906 375.415 133.205 373.847 133.149L373.838 133.149H373.829L323.789 133.149L323.786 133.149C322.324 133.159 320.879 132.777 319.569 132.031C318.259 131.284 317.121 130.194 316.254 128.847C315.386 127.498 314.816 125.933 314.593 124.281C314.371 122.629 314.504 120.942 314.979 119.36C315.455 117.779 316.259 116.353 317.32 115.2C318.381 114.046 319.667 113.199 321.069 112.723C322.471 112.246 323.952 112.153 325.39 112.45C326.829 112.746 328.189 113.425 329.356 114.436L330.348 115.295L330.179 113.994C329.42 108.143 330.743 102.197 333.853 97.4423C336.963 92.6889 341.602 89.5158 346.758 88.5848C351.912 87.6542 357.191 89.0342 361.459 92.4426C365.73 95.8531 368.646 101.024 369.56 106.846L369.654 107.446L370.225 107.238C371.39 106.814 372.606 106.599 373.829 106.599Z" fill="white" stroke="black"/>
<path d="M384.917 502.929C386.726 502.929 388.193 501.283 388.193 499.252C388.193 497.222 386.726 495.576 384.917 495.576C383.108 495.576 381.641 497.222 381.641 499.252C381.641 501.283 383.108 502.929 384.917 502.929Z" fill="#FFD078"/>
<path d="M819.521 315.254L819.617 315.847L820.183 315.645C820.986 315.359 821.822 315.215 822.662 315.219C824.746 315.308 826.732 316.299 828.199 318.007C829.669 319.719 830.499 322.014 830.5 324.412C830.501 326.81 829.673 329.106 828.204 330.82C826.739 332.528 824.755 333.522 822.671 333.614H787.45C786.454 333.614 785.468 333.347 784.575 332.833C783.682 332.318 782.905 331.569 782.312 330.642C781.719 329.715 781.329 328.639 781.178 327.502C781.026 326.366 781.118 325.206 781.445 324.119C781.772 323.032 782.323 322.053 783.049 321.261C783.775 320.47 784.654 319.888 785.61 319.56C786.566 319.232 787.576 319.164 788.558 319.361C789.54 319.558 790.472 320.016 791.274 320.703L792.257 321.543L792.095 320.26C791.582 316.185 792.515 312.053 794.683 308.751C796.851 305.452 800.073 303.253 803.647 302.606C807.22 301.958 810.883 302.907 813.852 305.264C816.824 307.622 818.866 311.206 819.521 315.254Z" fill="white" stroke="black"/>
</svg>
