<svg width="26" height="25" viewBox="0 0 26 25" fill="none" xmlns="http://www.w3.org/2000/svg">
<path d="M13.2841 13.3916C14.9871 13.3916 16.3676 12.0096 16.3676 10.3049C16.3676 8.6002 14.9871 7.21826 13.2841 7.21826C11.5811 7.21826 10.2006 8.6002 10.2006 10.3049C10.2006 12.0096 11.5811 13.3916 13.2841 13.3916Z" stroke="#FFAF0F" stroke-width="2" stroke-linecap="round" stroke-linejoin="round"/>
<path d="M13.284 2.07385C11.1032 2.07385 9.01172 2.94105 7.46966 4.48468C5.9276 6.02831 5.06128 8.12192 5.06128 10.3049C5.06128 12.2516 5.47447 13.5253 6.60304 14.9349L13.284 22.6516L19.965 14.9349C21.0935 13.5253 21.5067 12.2516 21.5067 10.3049C21.5067 8.12192 20.6404 6.02831 19.0984 4.48468C17.5563 2.94105 15.4648 2.07385 13.284 2.07385V2.07385Z" stroke="#FFAF0F" stroke-width="2" stroke-linecap="round" stroke-linejoin="round"/>
</svg>
