<svg width="39" height="36" viewBox="0 0 39 36" fill="none" xmlns="http://www.w3.org/2000/svg">
<path d="M18.5772 31.0749L31.7843 21.9563C32.5883 21.4001 33.0372 20.5019 33.0502 19.5847L33.1986 10.6176C33.2197 9.34114 32.4417 8.19257 31.2565 7.75063L22.9304 4.64605C22.0795 4.32648 21.0885 4.42438 20.2846 4.98052L7.09391 14.1235L18.6431 18.5816L18.5772 31.0749Z" fill="#F95C19"/>
<path d="M20.5266 4.74227L7.24176 13.9146C6.4331 14.474 5.98158 15.3775 5.96846 16.3001L5.81896 25.3325C5.79783 26.6089 6.5759 27.7575 7.76111 28.1994L16.1478 31.3266C17.0037 31.6481 18.0005 31.5496 18.8092 30.9902L32.0774 21.7935L22.382 18.0509C21.2251 17.6043 20.4647 16.4817 20.4713 15.2303L20.5266 4.74227Z" fill="#CA3E02"/>
</svg>
