<svg width="49" height="43" viewBox="0 0 49 43" fill="none" xmlns="http://www.w3.org/2000/svg">
<path d="M3.81763 39.5011V12.5011H45.8176V39.5011C45.8176 41.1886 44.4114 42.5011 42.8176 42.5011H6.81763C5.13013 42.5011 3.81763 41.1886 3.81763 39.5011ZM18.8176 19.6261V20.3761C18.8176 21.0323 19.2864 21.5011 19.9426 21.5011H29.6926C30.2551 21.5011 30.8176 21.0323 30.8176 20.3761V19.6261C30.8176 19.0636 30.2551 18.5011 29.6926 18.5011H19.9426C19.2864 18.5011 18.8176 19.0636 18.8176 19.6261ZM45.8176 0.501068C47.4114 0.501068 48.8176 1.90732 48.8176 3.50107V8.00107C48.8176 8.84482 48.0676 9.50107 47.3176 9.50107H2.31763C1.47388 9.50107 0.817627 8.84482 0.817627 8.00107V3.50107C0.817627 1.90732 2.13013 0.501068 3.81763 0.501068H45.8176Z" fill="black"/>
</svg>
