<svg width="42" height="49" viewBox="0 0 42 49" fill="none" xmlns="http://www.w3.org/2000/svg">
<path d="M42 34.2511C42 35.0011 41.625 35.6573 41.1562 36.0323C40.6875 37.4386 40.6875 41.5636 41.1562 43.0636C41.625 43.4386 42 44.0948 42 44.7511V46.2511C42 47.5636 40.9688 48.5011 39.75 48.5011H9C4.03125 48.5011 0 44.4698 0 39.5011V9.50107C0 4.53232 4.03125 0.501068 9 0.501068H39.75C40.9688 0.501068 42 1.53232 42 2.75107V34.2511ZM12 13.0636V14.9386C12 15.3136 12.1875 15.5011 12.5625 15.5011H32.4375C32.7188 15.5011 33 15.3136 33 14.9386V13.0636C33 12.7823 32.7188 12.5011 32.4375 12.5011H12.5625C12.1875 12.5011 12 12.7823 12 13.0636ZM12 19.0636V20.9386C12 21.3136 12.1875 21.5011 12.5625 21.5011H32.4375C32.7188 21.5011 33 21.3136 33 20.9386V19.0636C33 18.7823 32.7188 18.5011 32.4375 18.5011H12.5625C12.1875 18.5011 12 18.7823 12 19.0636ZM35.7188 42.5011C35.5312 40.9073 35.5312 38.1886 35.7188 36.5011H9C7.3125 36.5011 6 37.9073 6 39.5011C6 41.1886 7.3125 42.5011 9 42.5011H35.7188Z" fill="black"/>
</svg>
