<svg width="20" height="20" viewBox="0 0 39 37" fill="none" xmlns="http://www.w3.org/2000/svg">
  <path
    d="M18.5772 36.0748L31.7843 26.9561C32.5883 26.4 33.0372 25.5018 33.0502 24.5846L33.1986 15.6175C33.2197 14.341 32.4417 13.1924 31.2565 12.7505L22.9304 9.64593C22.0795 9.32635 21.0885 9.42425 20.2846 9.9804L7.09391 19.1233L18.6431 23.5815L18.5772 36.0748Z"
    fill="#F95C19"/>
  <path
    d="M20.5266 9.74233L7.24176 18.9146C6.4331 19.4741 5.98158 20.3775 5.96846 21.3002L5.81896 30.3325C5.79783 31.609 6.5759 32.7576 7.76111 33.1995L16.1478 36.3267C17.0037 36.6481 18.0005 36.5497 18.8092 35.9902L32.0774 26.7935L22.382 23.0509C21.2251 22.6044 20.4647 21.4818 20.4713 20.2303L20.5266 9.74233Z"
    fill="#CA3E02"/>
</svg>
