<svg xmlns="http://www.w3.org/2000/svg" shape-rendering="geometricPrecision"
     text-rendering="geometricPrecision" image-rendering="optimizeQuality" fill-rule="evenodd"
     clip-rule="evenodd" viewBox="0 0 512 448.767" width="30px"
     height="30px">
  <path fill="#FF9F00" fill-rule="nonzero"
        d="M151.147 259.198L107.13 87.975a16.315 16.315 0 01-.98-5.587c0-9.053 7.345-16.398 16.398-16.398h373.09c1.291.039 2.601.191 3.908.513 8.772 2.159 14.134 11.02 11.976 19.793l-42.43 171.666c-1.326 7.718-8.057 13.598-16.157 13.598h-285.97v-.071c-7.287.004-13.936-4.907-15.818-12.291z"/>
  <path fill="#788F9B"
        d="M399.948 368.626c22.133 0 40.07 17.937 40.07 40.07 0 22.129-17.937 40.071-40.07 40.071-22.129 0-40.07-17.942-40.07-40.071 0-22.133 17.941-40.07 40.07-40.07zm-175.675 0c22.129 0 40.07 17.937 40.07 40.07 0 22.129-17.941 40.071-40.07 40.071-22.133 0-40.074-17.942-40.074-40.071 0-22.133 17.941-40.07 40.074-40.07z"/>
  <path fill="#869AA5" fill-rule="nonzero"
        d="M16.394 32.787C7.341 32.787 0 25.446 0 16.393 0 7.341 7.341 0 16.394 0h42.663l1.638.082c14.904.272 28.467 3.192 39.875 10.292 12.486 7.769 21.807 19.889 26.725 37.982 16.577 71.081 39.406 142.274 56.468 213.373 7.116 28.125 12.98 42.606 22.199 48.8 7.738 5.199 20.368 6.467 39.981 6.486 9.83.008 19.512-.206 29.338-.206h173.84c9.052 0 16.393 7.341 16.393 16.394 0 9.052-7.341 16.393-16.393 16.393H273.484c-9.67 0-19.286.117-28.956.066-25.33-.144-42.532-2.422-56.756-11.984-17.381-11.673-26.538-31.508-35.754-68.012L95.659 56.934c-2.547-9.375-6.84-15.32-12.377-18.765-5.937-3.694-13.846-5.25-22.996-5.428l-1.229.046H16.394z"/>
  <path fill="#788F9B" fill-rule="nonzero"
        d="M0 16.393C0 7.341 7.341 0 16.394 0h42.663l1.638.082c14.904.272 28.467 3.192 39.875 10.292 12.486 7.769 21.807 19.889 26.725 37.982 16.577 71.081 39.406 142.274 56.468 213.373 7.116 28.125 12.98 42.606 22.199 48.8 8.177 5.494 21.814 6.595 43.383 6.478 8.143-.035 16.06-.198 24.206-.198h175.57c9.052 0 16.393 7.341 16.393 16.394H260.622c-62.713 1.104-76.396-2.87-92.724-67.507L111.477 52.645c-7.469-27.475-27.187-36.104-52.42-36.252H0z"/>
  <path fill="#8FA3AD"
        d="M399.948 390.214c10.207 0 18.481 8.275 18.481 18.482 0 10.207-8.274 18.478-18.481 18.478-10.207 0-18.478-8.271-18.478-18.478s8.271-18.482 18.478-18.482zm-175.679 0c10.207 0 18.481 8.275 18.481 18.482 0 10.207-8.274 18.478-18.481 18.478-10.207 0-18.478-8.271-18.478-18.478s8.271-18.482 18.478-18.482z"/>
  <path fill="#BA7400" fill-rule="nonzero"
        d="M226.668 138.914c-.42-6.338 4.375-11.825 10.713-12.245 6.338-.42 11.824 4.374 12.244 10.713l4.122 61.246c.42 6.338-4.374 11.825-10.713 12.245-6.338.42-11.824-4.375-12.244-10.713l-4.122-61.246zm150.84-1.532c.42-6.339 5.906-11.133 12.244-10.713 6.339.42 11.133 5.907 10.713 12.245l-4.122 61.246c-.42 6.338-5.906 11.133-12.245 10.713-6.337-.42-11.132-5.907-10.712-12.245l4.122-61.246zm-75.467.766c0-6.362 5.164-11.525 11.525-11.525 6.362 0 11.526 5.163 11.526 11.525v61.246c0 6.362-5.164 11.526-11.526 11.526-6.361 0-11.525-5.164-11.525-11.526v-61.246z"/>
</svg>
